<svg width="306" height="445" viewBox="0 0 306 445" fill="none" xmlns="http://www.w3.org/2000/svg">
<g clip-path="url(#clip0_3758_82)">
<rect width="306" height="445" fill="#363636"/>
<g clip-path="url(#clip1_3758_82)">
<path d="M-141.6 108L-124.5 -13.5H-156.3L-152.4 -40.5L-149.4 -40.8C-140.8 -41.8 -133.6 -44.5 -127.8 -48.9C-121.8 -53.5 -116.1 -60.3 -110.7 -69.3H-68.7L-93.9 108H-141.6ZM-28.2445 111.9C-39.0445 111.7 -48.1445 109.6 -55.5445 105.6C-62.9445 101.6 -68.1445 95.1 -71.1445 86.1C-74.1445 76.9 -74.5445 64.4 -72.3445 48.6L-62.7445 -19.5C-60.3445 -37.3 -53.7445 -50.4 -42.9445 -58.8C-31.9445 -67.2 -18.2445 -71.4 -1.84453 -71.4C13.7555 -71.4 25.6555 -67.2 33.8555 -58.8C42.2555 -50.4 45.2555 -37.3 42.8555 -19.5L33.2555 48.3C31.0555 64.3 27.0555 77 21.2555 86.4C15.6555 95.6 8.65547 102.2 0.255475 106.2C-8.14453 110 -17.6445 111.9 -28.2445 111.9ZM-24.6445 84.3C-23.0445 84.3 -21.6445 83.6 -20.4445 82.2C-19.2445 80.8 -18.4445 78.4 -18.0445 75L-2.74453 -33.9C-2.34453 -37.3 -2.54453 -39.6 -3.34453 -40.8C-3.94453 -42.2 -5.04453 -42.9 -6.64453 -42.9C-8.04453 -42.9 -9.34453 -42.2 -10.5445 -40.8C-11.7445 -39.6 -12.6445 -37.3 -13.2445 -33.9L-28.5445 75C-28.9445 78.4 -28.7445 80.8 -27.9445 82.2C-27.1445 83.6 -26.0445 84.3 -24.6445 84.3ZM64.0641 108L81.1641 -13.5H49.3641L53.2641 -40.5L56.2641 -40.8C64.8641 -41.8 72.0641 -44.5 77.8641 -48.9C83.8641 -53.5 89.5641 -60.3 94.9641 -69.3H136.964L111.764 108H64.0641ZM198.537 108L215.637 -13.5H183.837L187.737 -40.5L190.737 -40.8C199.337 -41.8 206.537 -44.5 212.337 -48.9C218.337 -53.5 224.037 -60.3 229.437 -69.3H271.437L246.237 108H198.537ZM311.892 111.9C301.092 111.7 291.992 109.6 284.592 105.6C277.192 101.6 271.992 95.1 268.992 86.1C265.992 76.9 265.592 64.4 267.792 48.6L277.392 -19.5C279.792 -37.3 286.392 -50.4 297.192 -58.8C308.192 -67.2 321.892 -71.4 338.292 -71.4C353.892 -71.4 365.792 -67.2 373.992 -58.8C382.392 -50.4 385.392 -37.3 382.992 -19.5L373.392 48.3C371.192 64.3 367.192 77 361.392 86.4C355.792 95.6 348.792 102.2 340.392 106.2C331.992 110 322.492 111.9 311.892 111.9ZM315.492 84.3C317.092 84.3 318.492 83.6 319.692 82.2C320.892 80.8 321.692 78.4 322.092 75L337.392 -33.9C337.792 -37.3 337.592 -39.6 336.792 -40.8C336.192 -42.2 335.092 -42.9 333.492 -42.9C332.092 -42.9 330.792 -42.2 329.592 -40.8C328.392 -39.6 327.492 -37.3 326.892 -33.9L311.592 75C311.192 78.4 311.392 80.8 312.192 82.2C312.992 83.6 314.092 84.3 315.492 84.3ZM404.201 108L421.301 -13.5H389.501L393.401 -40.5L396.401 -40.8C405.001 -41.8 412.201 -44.5 418.001 -48.9C424.001 -53.5 429.701 -60.3 435.101 -69.3H477.101L451.901 108H404.201Z" fill="#2F2F2F"/>
<path d="M28.4 313L45.5 191.5H13.7L17.6 164.5L20.6 164.2C29.2 163.2 36.4 160.5 42.2 156.1C48.2 151.5 53.9 144.7 59.3 135.7H101.3L76.1 313H28.4ZM141.755 316.9C130.955 316.7 121.855 314.6 114.455 310.6C107.055 306.6 101.855 300.1 98.8555 291.1C95.8555 281.9 95.4555 269.4 97.6555 253.6L107.255 185.5C109.655 167.7 116.255 154.6 127.055 146.2C138.055 137.8 151.755 133.6 168.155 133.6C183.755 133.6 195.655 137.8 203.855 146.2C212.255 154.6 215.255 167.7 212.855 185.5L203.255 253.3C201.055 269.3 197.055 282 191.255 291.4C185.655 300.6 178.655 307.2 170.255 311.2C161.855 315 152.355 316.9 141.755 316.9ZM145.355 289.3C146.955 289.3 148.355 288.6 149.555 287.2C150.755 285.8 151.555 283.4 151.955 280L167.255 171.1C167.655 167.7 167.455 165.4 166.655 164.2C166.055 162.8 164.955 162.1 163.355 162.1C161.955 162.1 160.655 162.8 159.455 164.2C158.255 165.4 157.355 167.7 156.755 171.1L141.455 280C141.055 283.4 141.255 285.8 142.055 287.2C142.855 288.6 143.955 289.3 145.355 289.3ZM234.064 313L251.164 191.5H219.364L223.264 164.5L226.264 164.2C234.864 163.2 242.064 160.5 247.864 156.1C253.864 151.5 259.564 144.7 264.964 135.7H306.964L281.764 313H234.064Z" fill="#2F2F2F"/>
<path d="M-141.6 518L-124.5 396.5H-156.3L-152.4 369.5L-149.4 369.2C-140.8 368.2 -133.6 365.5 -127.8 361.1C-121.8 356.5 -116.1 349.7 -110.7 340.7H-68.7L-93.9 518H-141.6ZM-28.2445 521.9C-39.0445 521.7 -48.1445 519.6 -55.5445 515.6C-62.9445 511.6 -68.1445 505.1 -71.1445 496.1C-74.1445 486.9 -74.5445 474.4 -72.3445 458.6L-62.7445 390.5C-60.3445 372.7 -53.7445 359.6 -42.9445 351.2C-31.9445 342.8 -18.2445 338.6 -1.84453 338.6C13.7555 338.6 25.6555 342.8 33.8555 351.2C42.2555 359.6 45.2555 372.7 42.8555 390.5L33.2555 458.3C31.0555 474.3 27.0555 487 21.2555 496.4C15.6555 505.6 8.65547 512.2 0.255475 516.2C-8.14453 520 -17.6445 521.9 -28.2445 521.9ZM-24.6445 494.3C-23.0445 494.3 -21.6445 493.6 -20.4445 492.2C-19.2445 490.8 -18.4445 488.4 -18.0445 485L-2.74453 376.1C-2.34453 372.7 -2.54453 370.4 -3.34453 369.2C-3.94453 367.8 -5.04453 367.1 -6.64453 367.1C-8.04453 367.1 -9.34453 367.8 -10.5445 369.2C-11.7445 370.4 -12.6445 372.7 -13.2445 376.1L-28.5445 485C-28.9445 488.4 -28.7445 490.8 -27.9445 492.2C-27.1445 493.6 -26.0445 494.3 -24.6445 494.3ZM64.0641 518L81.1641 396.5H49.3641L53.2641 369.5L56.2641 369.2C64.8641 368.2 72.0641 365.5 77.8641 361.1C83.8641 356.5 89.5641 349.7 94.9641 340.7H136.964L111.764 518H64.0641ZM198.537 518L215.637 396.5H183.837L187.737 369.5L190.737 369.2C199.337 368.2 206.537 365.5 212.337 361.1C218.337 356.5 224.037 349.7 229.437 340.7H271.437L246.237 518H198.537ZM311.892 521.9C301.092 521.7 291.992 519.6 284.592 515.6C277.192 511.6 271.992 505.1 268.992 496.1C265.992 486.9 265.592 474.4 267.792 458.6L277.392 390.5C279.792 372.7 286.392 359.6 297.192 351.2C308.192 342.8 321.892 338.6 338.292 338.6C353.892 338.6 365.792 342.8 373.992 351.2C382.392 359.6 385.392 372.7 382.992 390.5L373.392 458.3C371.192 474.3 367.192 487 361.392 496.4C355.792 505.6 348.792 512.2 340.392 516.2C331.992 520 322.492 521.9 311.892 521.9ZM315.492 494.3C317.092 494.3 318.492 493.6 319.692 492.2C320.892 490.8 321.692 488.4 322.092 485L337.392 376.1C337.792 372.7 337.592 370.4 336.792 369.2C336.192 367.8 335.092 367.1 333.492 367.1C332.092 367.1 330.792 367.8 329.592 369.2C328.392 370.4 327.492 372.7 326.892 376.1L311.592 485C311.192 488.4 311.392 490.8 312.192 492.2C312.992 493.6 314.092 494.3 315.492 494.3ZM404.201 518L421.301 396.5H389.501L393.401 369.5L396.401 369.2C405.001 368.2 412.201 365.5 418.001 361.1C424.001 356.5 429.701 349.7 435.101 340.7H477.101L451.901 518H404.201Z" fill="#2F2F2F"/>
</g>
</g>
<rect x="0.5" y="0.5" width="305" height="444" stroke="#434343"/>
<defs>
<clipPath id="clip0_3758_82">
<rect width="306" height="445" fill="white"/>
</clipPath>
<clipPath id="clip1_3758_82">
<rect width="305" height="605" fill="white" transform="translate(0.5 -80)"/>
</clipPath>
</defs>
</svg>
