<svg width="306" height="445" viewBox="0 0 306 445" fill="none" xmlns="http://www.w3.org/2000/svg">
<g clip-path="url(#clip0_3761_9727)">
<rect width="306" height="445" fill="#363636"/>
<g clip-path="url(#clip1_3761_9727)">
<path d="M-145 109.8C-157 109.8 -166.9 108.2 -174.7 105C-182.3 101.8 -187.7 97 -190.9 90.6C-193.9 84.2 -194.8 76.2 -193.6 66.6L-190.3 44.1H-142.6L-143.8 51.6C-145 59.8 -145.6 66 -145.6 70.2C-145.6 74.2 -144 76.2 -140.8 76.2C-138.2 76.2 -136.4 74.6 -135.4 71.4C-134.2 68.2 -133.3 64.4 -132.7 60L-130 42.3C-129.4 37.5 -130.8 34.5 -134.2 33.3C-137.4 31.9 -142.7 31.2 -150.1 31.2H-161.8L-158.2 6H-146.2C-142.8 6 -139.9 5.8 -137.5 5.4C-134.9 5 -132.7 4.4 -130.9 3.59999C-128.1 2.4 -126.2 0.999998 -125.2 -0.600006C-124.2 -2.40001 -123.6 -4.30001 -123.4 -6.3L-121.3 -20.1C-120.7 -24.5 -120.6 -28.3 -121 -31.5C-121.2 -34.7 -122.6 -36.3 -125.2 -36.3C-128.4 -36.3 -130.5 -34.2 -131.5 -30C-132.5 -26 -133.6 -19.9 -134.8 -11.7L-135.4 -7.2H-183.1L-180.4 -26.7C-178.4 -41.1 -172.4 -51.9 -162.4 -59.1C-152.2 -66.3 -138 -69.9 -119.8 -69.9C-100.2 -69.9 -86.6 -66.8 -79 -60.6C-71.2 -54.4 -68.3 -44.5 -70.3 -30.9L-72.7 -13.8C-74.1 -3.8 -77.8 4.3 -83.8 10.5C-89.6 16.5 -97.8 19.7 -108.4 20.1C-98.8 20.1 -91.7 23 -87.1 28.8C-82.3 34.4 -80.6 42.3 -82 52.5L-84.1 66.6C-85.5 77.4 -88.6 86 -93.4 92.4C-98 98.6 -104.5 103.1 -112.9 105.9C-121.3 108.5 -132 109.8 -145 109.8ZM-28.0844 111.9C-38.8844 111.7 -47.9844 109.6 -55.3844 105.6C-62.7844 101.6 -67.9844 95.1 -70.9844 86.1C-73.9844 76.9 -74.3844 64.4 -72.1844 48.6L-62.5844 -19.5C-60.1844 -37.3 -53.5844 -50.4 -42.7844 -58.8C-31.7844 -67.2 -18.0844 -71.4 -1.68437 -71.4C13.9156 -71.4 25.8156 -67.2 34.0156 -58.8C42.4156 -50.4 45.4156 -37.3 43.0156 -19.5L33.4156 48.3C31.2156 64.3 27.2156 77 21.4156 86.4C15.8156 95.6 8.81563 102.2 0.415631 106.2C-7.98437 110 -17.4844 111.9 -28.0844 111.9ZM-24.4844 84.3C-22.8844 84.3 -21.4844 83.6 -20.2844 82.2C-19.0844 80.8 -18.2844 78.4 -17.8844 75L-2.58437 -33.9C-2.18437 -37.3 -2.38437 -39.6 -3.18437 -40.8C-3.78437 -42.2 -4.88437 -42.9 -6.48437 -42.9C-7.88437 -42.9 -9.18437 -42.2 -10.3844 -40.8C-11.5844 -39.6 -12.4844 -37.3 -13.0844 -33.9L-28.3844 75C-28.7844 78.4 -28.5844 80.8 -27.7844 82.2C-26.9844 83.6 -25.8844 84.3 -24.4844 84.3ZM64.2242 108L81.3242 -13.5H49.5242L53.4242 -40.5L56.4242 -40.8C65.0242 -41.8 72.2242 -44.5 78.0242 -48.9C84.0242 -53.5 89.7242 -60.3 95.1242 -69.3H137.124L111.924 108H64.2242ZM221.797 109.8C209.797 109.8 199.897 108.2 192.097 105C184.497 101.8 179.097 97 175.897 90.6C172.897 84.2 171.997 76.2 173.197 66.6L176.497 44.1H224.197L222.997 51.6C221.797 59.8 221.197 66 221.197 70.2C221.197 74.2 222.797 76.2 225.997 76.2C228.597 76.2 230.397 74.6 231.397 71.4C232.597 68.2 233.497 64.4 234.097 60L236.797 42.3C237.397 37.5 235.997 34.5 232.597 33.3C229.397 31.9 224.097 31.2 216.697 31.2H204.997L208.597 6H220.597C223.997 6 226.897 5.8 229.297 5.4C231.897 5 234.097 4.4 235.897 3.59999C238.697 2.4 240.597 0.999998 241.597 -0.600006C242.597 -2.40001 243.197 -4.30001 243.397 -6.3L245.497 -20.1C246.097 -24.5 246.197 -28.3 245.797 -31.5C245.597 -34.7 244.197 -36.3 241.597 -36.3C238.397 -36.3 236.297 -34.2 235.297 -30C234.297 -26 233.197 -19.9 231.997 -11.7L231.397 -7.2H183.697L186.397 -26.7C188.397 -41.1 194.397 -51.9 204.397 -59.1C214.597 -66.3 228.797 -69.9 246.997 -69.9C266.597 -69.9 280.197 -66.8 287.797 -60.6C295.597 -54.4 298.497 -44.5 296.497 -30.9L294.097 -13.8C292.697 -3.8 288.997 4.3 282.997 10.5C277.197 16.5 268.997 19.7 258.397 20.1C267.997 20.1 275.097 23 279.697 28.8C284.497 34.4 286.197 42.3 284.797 52.5L282.697 66.6C281.297 77.4 278.197 86 273.397 92.4C268.797 98.6 262.297 103.1 253.897 105.9C245.497 108.5 234.797 109.8 221.797 109.8ZM338.713 111.9C327.913 111.7 318.813 109.6 311.413 105.6C304.013 101.6 298.813 95.1 295.813 86.1C292.813 76.9 292.413 64.4 294.613 48.6L304.213 -19.5C306.613 -37.3 313.213 -50.4 324.013 -58.8C335.013 -67.2 348.713 -71.4 365.113 -71.4C380.713 -71.4 392.613 -67.2 400.813 -58.8C409.213 -50.4 412.213 -37.3 409.813 -19.5L400.213 48.3C398.013 64.3 394.013 77 388.213 86.4C382.613 95.6 375.613 102.2 367.213 106.2C358.813 110 349.313 111.9 338.713 111.9ZM342.313 84.3C343.913 84.3 345.313 83.6 346.513 82.2C347.713 80.8 348.513 78.4 348.913 75L364.213 -33.9C364.613 -37.3 364.413 -39.6 363.613 -40.8C363.013 -42.2 361.913 -42.9 360.313 -42.9C358.913 -42.9 357.613 -42.2 356.413 -40.8C355.213 -39.6 354.313 -37.3 353.713 -33.9L338.413 75C338.013 78.4 338.213 80.8 339.013 82.2C339.813 83.6 340.913 84.3 342.313 84.3ZM431.021 108L448.121 -13.5H416.321L420.221 -40.5L423.221 -40.8C431.821 -41.8 439.021 -44.5 444.821 -48.9C450.821 -53.5 456.521 -60.3 461.921 -69.3H503.921L478.721 108H431.021Z" fill="#2F2F2F"/>
<path d="M38.5 314.8C26.5 314.8 16.6 313.2 8.8 310C1.2 306.8 -4.2 302 -7.4 295.6C-10.4 289.2 -11.3 281.2 -10.1 271.6L-6.8 249.1H40.9L39.7 256.6C38.5 264.8 37.9 271 37.9 275.2C37.9 279.2 39.5 281.2 42.7 281.2C45.3 281.2 47.1 279.6 48.1 276.4C49.3 273.2 50.2 269.4 50.8 265L53.5 247.3C54.1 242.5 52.7 239.5 49.3 238.3C46.1 236.9 40.8 236.2 33.4 236.2H21.7L25.3 211H37.3C40.7 211 43.6 210.8 46 210.4C48.6 210 50.8 209.4 52.6 208.6C55.4 207.4 57.3 206 58.3 204.4C59.3 202.6 59.9 200.7 60.1 198.7L62.2 184.9C62.8 180.5 62.9 176.7 62.5 173.5C62.3 170.3 60.9 168.7 58.3 168.7C55.1 168.7 53 170.8 52 175C51 179 49.9 185.1 48.7 193.3L48.1 197.8H0.4L3.1 178.3C5.1 163.9 11.1 153.1 21.1 145.9C31.3 138.7 45.5 135.1 63.7 135.1C83.3 135.1 96.9 138.2 104.5 144.4C112.3 150.6 115.2 160.5 113.2 174.1L110.8 191.2C109.4 201.2 105.7 209.3 99.7 215.5C93.9 221.5 85.7 224.7 75.1 225.1C84.7 225.1 91.8 228 96.4 233.8C101.2 239.4 102.9 247.3 101.5 257.5L99.4 271.6C98 282.4 94.9 291 90.1 297.4C85.5 303.6 79 308.1 70.6 310.9C62.2 313.5 51.5 314.8 38.5 314.8ZM155.416 316.9C144.616 316.7 135.516 314.6 128.116 310.6C120.716 306.6 115.516 300.1 112.516 291.1C109.516 281.9 109.116 269.4 111.316 253.6L120.916 185.5C123.316 167.7 129.916 154.6 140.716 146.2C151.716 137.8 165.416 133.6 181.816 133.6C197.416 133.6 209.316 137.8 217.516 146.2C225.916 154.6 228.916 167.7 226.516 185.5L216.916 253.3C214.716 269.3 210.716 282 204.916 291.4C199.316 300.6 192.316 307.2 183.916 311.2C175.516 315 166.016 316.9 155.416 316.9ZM159.016 289.3C160.616 289.3 162.016 288.6 163.216 287.2C164.416 285.8 165.216 283.4 165.616 280L180.916 171.1C181.316 167.7 181.116 165.4 180.316 164.2C179.716 162.8 178.616 162.1 177.016 162.1C175.616 162.1 174.316 162.8 173.116 164.2C171.916 165.4 171.016 167.7 170.416 171.1L155.116 280C154.716 283.4 154.916 285.8 155.716 287.2C156.516 288.6 157.616 289.3 159.016 289.3ZM247.724 313L264.824 191.5H233.024L236.924 164.5L239.924 164.2C248.524 163.2 255.724 160.5 261.524 156.1C267.524 151.5 273.224 144.7 278.624 135.7H320.624L295.424 313H247.724Z" fill="#2F2F2F"/>
<path d="M-145 519.8C-157 519.8 -166.9 518.2 -174.7 515C-182.3 511.8 -187.7 507 -190.9 500.6C-193.9 494.2 -194.8 486.2 -193.6 476.6L-190.3 454.1H-142.6L-143.8 461.6C-145 469.8 -145.6 476 -145.6 480.2C-145.6 484.2 -144 486.2 -140.8 486.2C-138.2 486.2 -136.4 484.6 -135.4 481.4C-134.2 478.2 -133.3 474.4 -132.7 470L-130 452.3C-129.4 447.5 -130.8 444.5 -134.2 443.3C-137.4 441.9 -142.7 441.2 -150.1 441.2H-161.8L-158.2 416H-146.2C-142.8 416 -139.9 415.8 -137.5 415.4C-134.9 415 -132.7 414.4 -130.9 413.6C-128.1 412.4 -126.2 411 -125.2 409.4C-124.2 407.6 -123.6 405.7 -123.4 403.7L-121.3 389.9C-120.7 385.5 -120.6 381.7 -121 378.5C-121.2 375.3 -122.6 373.7 -125.2 373.7C-128.4 373.7 -130.5 375.8 -131.5 380C-132.5 384 -133.6 390.1 -134.8 398.3L-135.4 402.8H-183.1L-180.4 383.3C-178.4 368.9 -172.4 358.1 -162.4 350.9C-152.2 343.7 -138 340.1 -119.8 340.1C-100.2 340.1 -86.6 343.2 -79 349.4C-71.2 355.6 -68.3 365.5 -70.3 379.1L-72.7 396.2C-74.1 406.2 -77.8 414.3 -83.8 420.5C-89.6 426.5 -97.8 429.7 -108.4 430.1C-98.8 430.1 -91.7 433 -87.1 438.8C-82.3 444.4 -80.6 452.3 -82 462.5L-84.1 476.6C-85.5 487.4 -88.6 496 -93.4 502.4C-98 508.6 -104.5 513.1 -112.9 515.9C-121.3 518.5 -132 519.8 -145 519.8ZM-28.0844 521.9C-38.8844 521.7 -47.9844 519.6 -55.3844 515.6C-62.7844 511.6 -67.9844 505.1 -70.9844 496.1C-73.9844 486.9 -74.3844 474.4 -72.1844 458.6L-62.5844 390.5C-60.1844 372.7 -53.5844 359.6 -42.7844 351.2C-31.7844 342.8 -18.0844 338.6 -1.68437 338.6C13.9156 338.6 25.8156 342.8 34.0156 351.2C42.4156 359.6 45.4156 372.7 43.0156 390.5L33.4156 458.3C31.2156 474.3 27.2156 487 21.4156 496.4C15.8156 505.6 8.81563 512.2 0.415631 516.2C-7.98437 520 -17.4844 521.9 -28.0844 521.9ZM-24.4844 494.3C-22.8844 494.3 -21.4844 493.6 -20.2844 492.2C-19.0844 490.8 -18.2844 488.4 -17.8844 485L-2.58437 376.1C-2.18437 372.7 -2.38437 370.4 -3.18437 369.2C-3.78437 367.8 -4.88437 367.1 -6.48437 367.1C-7.88437 367.1 -9.18437 367.8 -10.3844 369.2C-11.5844 370.4 -12.4844 372.7 -13.0844 376.1L-28.3844 485C-28.7844 488.4 -28.5844 490.8 -27.7844 492.2C-26.9844 493.6 -25.8844 494.3 -24.4844 494.3ZM64.2242 518L81.3242 396.5H49.5242L53.4242 369.5L56.4242 369.2C65.0242 368.2 72.2242 365.5 78.0242 361.1C84.0242 356.5 89.7242 349.7 95.1242 340.7H137.124L111.924 518H64.2242ZM221.797 519.8C209.797 519.8 199.897 518.2 192.097 515C184.497 511.8 179.097 507 175.897 500.6C172.897 494.2 171.997 486.2 173.197 476.6L176.497 454.1H224.197L222.997 461.6C221.797 469.8 221.197 476 221.197 480.2C221.197 484.2 222.797 486.2 225.997 486.2C228.597 486.2 230.397 484.6 231.397 481.4C232.597 478.2 233.497 474.4 234.097 470L236.797 452.3C237.397 447.5 235.997 444.5 232.597 443.3C229.397 441.9 224.097 441.2 216.697 441.2H204.997L208.597 416H220.597C223.997 416 226.897 415.8 229.297 415.4C231.897 415 234.097 414.4 235.897 413.6C238.697 412.4 240.597 411 241.597 409.4C242.597 407.6 243.197 405.7 243.397 403.7L245.497 389.9C246.097 385.5 246.197 381.7 245.797 378.5C245.597 375.3 244.197 373.7 241.597 373.7C238.397 373.7 236.297 375.8 235.297 380C234.297 384 233.197 390.1 231.997 398.3L231.397 402.8H183.697L186.397 383.3C188.397 368.9 194.397 358.1 204.397 350.9C214.597 343.7 228.797 340.1 246.997 340.1C266.597 340.1 280.197 343.2 287.797 349.4C295.597 355.6 298.497 365.5 296.497 379.1L294.097 396.2C292.697 406.2 288.997 414.3 282.997 420.5C277.197 426.5 268.997 429.7 258.397 430.1C267.997 430.1 275.097 433 279.697 438.8C284.497 444.4 286.197 452.3 284.797 462.5L282.697 476.6C281.297 487.4 278.197 496 273.397 502.4C268.797 508.6 262.297 513.1 253.897 515.9C245.497 518.5 234.797 519.8 221.797 519.8ZM338.713 521.9C327.913 521.7 318.813 519.6 311.413 515.6C304.013 511.6 298.813 505.1 295.813 496.1C292.813 486.9 292.413 474.4 294.613 458.6L304.213 390.5C306.613 372.7 313.213 359.6 324.013 351.2C335.013 342.8 348.713 338.6 365.113 338.6C380.713 338.6 392.613 342.8 400.813 351.2C409.213 359.6 412.213 372.7 409.813 390.5L400.213 458.3C398.013 474.3 394.013 487 388.213 496.4C382.613 505.6 375.613 512.2 367.213 516.2C358.813 520 349.313 521.9 338.713 521.9ZM342.313 494.3C343.913 494.3 345.313 493.6 346.513 492.2C347.713 490.8 348.513 488.4 348.913 485L364.213 376.1C364.613 372.7 364.413 370.4 363.613 369.2C363.013 367.8 361.913 367.1 360.313 367.1C358.913 367.1 357.613 367.8 356.413 369.2C355.213 370.4 354.313 372.7 353.713 376.1L338.413 485C338.013 488.4 338.213 490.8 339.013 492.2C339.813 493.6 340.913 494.3 342.313 494.3ZM431.021 518L448.121 396.5H416.321L420.221 369.5L423.221 369.2C431.821 368.2 439.021 365.5 444.821 361.1C450.821 356.5 456.521 349.7 461.921 340.7H503.921L478.721 518H431.021Z" fill="#2F2F2F"/>
</g>
</g>
<rect x="0.5" y="0.5" width="305" height="444" stroke="#434343"/>
<defs>
<clipPath id="clip0_3761_9727">
<rect width="306" height="445" fill="white"/>
</clipPath>
<clipPath id="clip1_3761_9727">
<rect width="305" height="605" fill="white" transform="translate(0.5 -80)"/>
</clipPath>
</defs>
</svg>
