<svg width="306" height="445" viewBox="0 0 306 445" fill="none" xmlns="http://www.w3.org/2000/svg">
<g clip-path="url(#clip0_3761_9732)">
<rect width="306" height="445" fill="#363636"/>
<g clip-path="url(#clip1_3761_9732)">
<path d="M-167.5 110.4C-181.5 110.4 -192.3 109.2 -199.9 106.8C-207.5 104.4 -212.5 99.9 -214.9 93.3C-217.1 86.5 -217.3 76.7 -215.5 63.9L-212.8 44.1H-165.1L-167.2 60C-168.2 66.8 -168.3 71.2 -167.5 73.2C-166.5 75.2 -165 76.2 -163 76.2C-161 76.2 -159.4 75.2 -158.2 73.2C-157 71.2 -155.9 66.8 -154.9 60L-150.4 27.9C-150.2 25.9 -150.1 24 -150.1 22.2C-150.1 20.4 -150.4 19 -151 18C-151.6 16.8 -152.8 16.2 -154.6 16.2C-157 16.2 -158.9 17.1 -160.3 18.9C-161.5 20.5 -162.3 22.9 -162.7 26.1H-210.4L-196.9 -69.3H-90.4L-95.2 -36H-154.6L-159.1 -3.90001C-157.5 -6.1 -154.6 -8.5 -150.4 -11.1C-146.2 -13.9 -139.4 -15.3 -130 -15.3C-116.8 -15.3 -108 -12.9 -103.6 -8.10001C-99.2 -3.3 -97.8 4.7 -99.4 15.9L-106.6 66.6C-108 77.6 -111.1 86.3 -115.9 92.7C-120.5 99.1 -127 103.7 -135.4 106.5C-143.8 109.1 -154.5 110.4 -167.5 110.4ZM-50.6195 111.9C-61.4195 111.7 -70.5195 109.6 -77.9195 105.6C-85.3195 101.6 -90.5195 95.1 -93.5195 86.1C-96.5195 76.9 -96.9195 64.4 -94.7195 48.6L-85.1195 -19.5C-82.7195 -37.3 -76.1195 -50.4 -65.3195 -58.8C-54.3195 -67.2 -40.6195 -71.4 -24.2195 -71.4C-8.61953 -71.4 3.28047 -67.2 11.4805 -58.8C19.8805 -50.4 22.8805 -37.3 20.4805 -19.5L10.8805 48.3C8.68047 64.3 4.68048 77 -1.11953 86.4C-6.71953 95.6 -13.7195 102.2 -22.1195 106.2C-30.5195 110 -40.0195 111.9 -50.6195 111.9ZM-47.0195 84.3C-45.4195 84.3 -44.0195 83.6 -42.8195 82.2C-41.6195 80.8 -40.8195 78.4 -40.4195 75L-25.1195 -33.9C-24.7195 -37.3 -24.9195 -39.6 -25.7195 -40.8C-26.3195 -42.2 -27.4195 -42.9 -29.0195 -42.9C-30.4195 -42.9 -31.7195 -42.2 -32.9195 -40.8C-34.1195 -39.6 -35.0195 -37.3 -35.6195 -33.9L-50.9195 75C-51.3195 78.4 -51.1195 80.8 -50.3195 82.2C-49.5195 83.6 -48.4195 84.3 -47.0195 84.3ZM41.6891 108L58.7891 -13.5H26.9891L30.8891 -40.5L33.8891 -40.8C42.4891 -41.8 49.6891 -44.5 55.4891 -48.9C61.4891 -53.5 67.1891 -60.3 72.5891 -69.3H114.589L89.3891 108H41.6891ZM245.879 110.4C231.879 110.4 221.079 109.2 213.479 106.8C205.879 104.4 200.879 99.9 198.479 93.3C196.279 86.5 196.079 76.7 197.879 63.9L200.579 44.1H248.279L246.179 60C245.179 66.8 245.079 71.2 245.879 73.2C246.879 75.2 248.379 76.2 250.379 76.2C252.379 76.2 253.979 75.2 255.179 73.2C256.379 71.2 257.479 66.8 258.479 60L262.979 27.9C263.179 25.9 263.279 24 263.279 22.2C263.279 20.4 262.979 19 262.379 18C261.779 16.8 260.579 16.2 258.779 16.2C256.379 16.2 254.479 17.1 253.079 18.9C251.879 20.5 251.079 22.9 250.679 26.1H202.979L216.479 -69.3H322.979L318.179 -36H258.779L254.279 -3.90001C255.879 -6.1 258.779 -8.5 262.979 -11.1C267.179 -13.9 273.979 -15.3 283.379 -15.3C296.579 -15.3 305.379 -12.9 309.779 -8.10001C314.179 -3.3 315.579 4.7 313.979 15.9L306.779 66.6C305.379 77.6 302.279 86.3 297.479 92.7C292.879 99.1 286.379 103.7 277.979 106.5C269.579 109.1 258.879 110.4 245.879 110.4ZM362.759 111.9C351.959 111.7 342.859 109.6 335.459 105.6C328.059 101.6 322.859 95.1 319.859 86.1C316.859 76.9 316.459 64.4 318.659 48.6L328.259 -19.5C330.659 -37.3 337.259 -50.4 348.059 -58.8C359.059 -67.2 372.759 -71.4 389.159 -71.4C404.759 -71.4 416.659 -67.2 424.859 -58.8C433.259 -50.4 436.259 -37.3 433.859 -19.5L424.259 48.3C422.059 64.3 418.059 77 412.259 86.4C406.659 95.6 399.659 102.2 391.259 106.2C382.859 110 373.359 111.9 362.759 111.9ZM366.359 84.3C367.959 84.3 369.359 83.6 370.559 82.2C371.759 80.8 372.559 78.4 372.959 75L388.259 -33.9C388.659 -37.3 388.459 -39.6 387.659 -40.8C387.059 -42.2 385.959 -42.9 384.359 -42.9C382.959 -42.9 381.659 -42.2 380.459 -40.8C379.259 -39.6 378.359 -37.3 377.759 -33.9L362.459 75C362.059 78.4 362.259 80.8 363.059 82.2C363.859 83.6 364.959 84.3 366.359 84.3ZM455.068 108L472.168 -13.5H440.368L444.268 -40.5L447.268 -40.8C455.868 -41.8 463.068 -44.5 468.868 -48.9C474.868 -53.5 480.568 -60.3 485.968 -69.3H527.968L502.768 108H455.068Z" fill="#2F2F2F"/>
<path d="M39 315.4C25 315.4 14.2 314.2 6.6 311.8C-1 309.4 -6 304.9 -8.4 298.3C-10.6 291.5 -10.8 281.7 -9 268.9L-6.3 249.1H41.4L39.3 265C38.3 271.8 38.2 276.2 39 278.2C40 280.2 41.5 281.2 43.5 281.2C45.5 281.2 47.1 280.2 48.3 278.2C49.5 276.2 50.6 271.8 51.6 265L56.1 232.9C56.3 230.9 56.4 229 56.4 227.2C56.4 225.4 56.1 224 55.5 223C54.9 221.8 53.7 221.2 51.9 221.2C49.5 221.2 47.6 222.1 46.2 223.9C45 225.5 44.2 227.9 43.8 231.1H-3.9L9.6 135.7H116.1L111.3 169H51.9L47.4 201.1C49 198.9 51.9 196.5 56.1 193.9C60.3 191.1 67.1 189.7 76.5 189.7C89.7 189.7 98.5 192.1 102.9 196.9C107.3 201.7 108.7 209.7 107.1 220.9L99.9 271.6C98.5 282.6 95.4 291.3 90.6 297.7C86 304.1 79.5 308.7 71.1 311.5C62.7 314.1 52 315.4 39 315.4ZM155.88 316.9C145.08 316.7 135.98 314.6 128.58 310.6C121.18 306.6 115.98 300.1 112.98 291.1C109.98 281.9 109.58 269.4 111.78 253.6L121.38 185.5C123.78 167.7 130.38 154.6 141.18 146.2C152.18 137.8 165.88 133.6 182.28 133.6C197.88 133.6 209.78 137.8 217.98 146.2C226.38 154.6 229.38 167.7 226.98 185.5L217.38 253.3C215.18 269.3 211.18 282 205.38 291.4C199.78 300.6 192.78 307.2 184.38 311.2C175.98 315 166.48 316.9 155.88 316.9ZM159.48 289.3C161.08 289.3 162.48 288.6 163.68 287.2C164.88 285.8 165.68 283.4 166.08 280L181.38 171.1C181.78 167.7 181.58 165.4 180.78 164.2C180.18 162.8 179.08 162.1 177.48 162.1C176.08 162.1 174.78 162.8 173.58 164.2C172.38 165.4 171.48 167.7 170.88 171.1L155.58 280C155.18 283.4 155.38 285.8 156.18 287.2C156.98 288.6 158.08 289.3 159.48 289.3ZM248.189 313L265.289 191.5H233.489L237.389 164.5L240.389 164.2C248.989 163.2 256.189 160.5 261.989 156.1C267.989 151.5 273.689 144.7 279.089 135.7H321.089L295.889 313H248.189Z" fill="#2F2F2F"/>
<path d="M-167.5 520.4C-181.5 520.4 -192.3 519.2 -199.9 516.8C-207.5 514.4 -212.5 509.9 -214.9 503.3C-217.1 496.5 -217.3 486.7 -215.5 473.9L-212.8 454.1H-165.1L-167.2 470C-168.2 476.8 -168.3 481.2 -167.5 483.2C-166.5 485.2 -165 486.2 -163 486.2C-161 486.2 -159.4 485.2 -158.2 483.2C-157 481.2 -155.9 476.8 -154.9 470L-150.4 437.9C-150.2 435.9 -150.1 434 -150.1 432.2C-150.1 430.4 -150.4 429 -151 428C-151.6 426.8 -152.8 426.2 -154.6 426.2C-157 426.2 -158.9 427.1 -160.3 428.9C-161.5 430.5 -162.3 432.9 -162.7 436.1H-210.4L-196.9 340.7H-90.4L-95.2 374H-154.6L-159.1 406.1C-157.5 403.9 -154.6 401.5 -150.4 398.9C-146.2 396.1 -139.4 394.7 -130 394.7C-116.8 394.7 -108 397.1 -103.6 401.9C-99.2 406.7 -97.8 414.7 -99.4 425.9L-106.6 476.6C-108 487.6 -111.1 496.3 -115.9 502.7C-120.5 509.1 -127 513.7 -135.4 516.5C-143.8 519.1 -154.5 520.4 -167.5 520.4ZM-50.6195 521.9C-61.4195 521.7 -70.5195 519.6 -77.9195 515.6C-85.3195 511.6 -90.5195 505.1 -93.5195 496.1C-96.5195 486.9 -96.9195 474.4 -94.7195 458.6L-85.1195 390.5C-82.7195 372.7 -76.1195 359.6 -65.3195 351.2C-54.3195 342.8 -40.6195 338.6 -24.2195 338.6C-8.61953 338.6 3.28047 342.8 11.4805 351.2C19.8805 359.6 22.8805 372.7 20.4805 390.5L10.8805 458.3C8.68047 474.3 4.68048 487 -1.11953 496.4C-6.71953 505.6 -13.7195 512.2 -22.1195 516.2C-30.5195 520 -40.0195 521.9 -50.6195 521.9ZM-47.0195 494.3C-45.4195 494.3 -44.0195 493.6 -42.8195 492.2C-41.6195 490.8 -40.8195 488.4 -40.4195 485L-25.1195 376.1C-24.7195 372.7 -24.9195 370.4 -25.7195 369.2C-26.3195 367.8 -27.4195 367.1 -29.0195 367.1C-30.4195 367.1 -31.7195 367.8 -32.9195 369.2C-34.1195 370.4 -35.0195 372.7 -35.6195 376.1L-50.9195 485C-51.3195 488.4 -51.1195 490.8 -50.3195 492.2C-49.5195 493.6 -48.4195 494.3 -47.0195 494.3ZM41.6891 518L58.7891 396.5H26.9891L30.8891 369.5L33.8891 369.2C42.4891 368.2 49.6891 365.5 55.4891 361.1C61.4891 356.5 67.1891 349.7 72.5891 340.7H114.589L89.3891 518H41.6891ZM245.879 520.4C231.879 520.4 221.079 519.2 213.479 516.8C205.879 514.4 200.879 509.9 198.479 503.3C196.279 496.5 196.079 486.7 197.879 473.9L200.579 454.1H248.279L246.179 470C245.179 476.8 245.079 481.2 245.879 483.2C246.879 485.2 248.379 486.2 250.379 486.2C252.379 486.2 253.979 485.2 255.179 483.2C256.379 481.2 257.479 476.8 258.479 470L262.979 437.9C263.179 435.9 263.279 434 263.279 432.2C263.279 430.4 262.979 429 262.379 428C261.779 426.8 260.579 426.2 258.779 426.2C256.379 426.2 254.479 427.1 253.079 428.9C251.879 430.5 251.079 432.9 250.679 436.1H202.979L216.479 340.7H322.979L318.179 374H258.779L254.279 406.1C255.879 403.9 258.779 401.5 262.979 398.9C267.179 396.1 273.979 394.7 283.379 394.7C296.579 394.7 305.379 397.1 309.779 401.9C314.179 406.7 315.579 414.7 313.979 425.9L306.779 476.6C305.379 487.6 302.279 496.3 297.479 502.7C292.879 509.1 286.379 513.7 277.979 516.5C269.579 519.1 258.879 520.4 245.879 520.4ZM362.759 521.9C351.959 521.7 342.859 519.6 335.459 515.6C328.059 511.6 322.859 505.1 319.859 496.1C316.859 486.9 316.459 474.4 318.659 458.6L328.259 390.5C330.659 372.7 337.259 359.6 348.059 351.2C359.059 342.8 372.759 338.6 389.159 338.6C404.759 338.6 416.659 342.8 424.859 351.2C433.259 359.6 436.259 372.7 433.859 390.5L424.259 458.3C422.059 474.3 418.059 487 412.259 496.4C406.659 505.6 399.659 512.2 391.259 516.2C382.859 520 373.359 521.9 362.759 521.9ZM366.359 494.3C367.959 494.3 369.359 493.6 370.559 492.2C371.759 490.8 372.559 488.4 372.959 485L388.259 376.1C388.659 372.7 388.459 370.4 387.659 369.2C387.059 367.8 385.959 367.1 384.359 367.1C382.959 367.1 381.659 367.8 380.459 369.2C379.259 370.4 378.359 372.7 377.759 376.1L362.459 485C362.059 488.4 362.259 490.8 363.059 492.2C363.859 493.6 364.959 494.3 366.359 494.3ZM455.068 518L472.168 396.5H440.368L444.268 369.5L447.268 369.2C455.868 368.2 463.068 365.5 468.868 361.1C474.868 356.5 480.568 349.7 485.968 340.7H527.968L502.768 518H455.068Z" fill="#2F2F2F"/>
</g>
</g>
<rect x="0.5" y="0.5" width="305" height="444" stroke="#434343"/>
<defs>
<clipPath id="clip0_3761_9732">
<rect width="306" height="445" fill="white"/>
</clipPath>
<clipPath id="clip1_3761_9732">
<rect width="305" height="605" fill="white" transform="translate(0.5 -80)"/>
</clipPath>
</defs>
</svg>
