<svg width="306" height="445" viewBox="0 0 306 445" fill="none" xmlns="http://www.w3.org/2000/svg">
<g clip-path="url(#clip0_3761_9737)">
<rect width="306" height="445" fill="#363636"/>
<g clip-path="url(#clip1_3761_9737)">
<path d="M-217.1 108L-166.4 -69.3H-95.9L-96.2 108H-149.9L-148.4 82.2H-159.5L-165.2 108H-217.1ZM-156.2 59.1H-145.4L-137.9 -31.8L-156.2 59.1ZM-73.7562 108L-53.3562 -36H-78.8562L-74.0562 -69.3H24.6438L19.8438 -36H-5.65624L-26.0562 108H-73.7562ZM61.1828 111.6C50.1828 111.6 40.7828 110.3 32.9828 107.7C25.1828 105.1 19.5828 99.8 16.1828 91.8C12.7828 83.8 12.1828 71.9 14.3828 56.1L26.6828 -31.5C28.0828 -41.5 31.4828 -49.4 36.8828 -55.2C42.2828 -61.2 49.2828 -65.5 57.8828 -68.1C66.4828 -70.7 76.1828 -72 86.9828 -72C97.9828 -72 107.183 -70.7 114.583 -68.1C121.983 -65.5 127.383 -61.2 130.783 -55.2C134.183 -49.4 135.183 -41.5 133.783 -31.5L128.083 9.89999H80.3828L86.3828 -33.9C86.7828 -36.3 86.7828 -38.1 86.3828 -39.3C86.1828 -40.7 85.7828 -41.6 85.1828 -42C84.5828 -42.6 83.7828 -42.9 82.7828 -42.9C81.7828 -42.9 80.8828 -42.6 80.0828 -42C79.2828 -41.6 78.5828 -40.7 77.9828 -39.3C77.5828 -38.1 77.1828 -36.3 76.7828 -33.9L61.4828 75C61.2828 77.2 61.2828 79 61.4828 80.4C61.6828 81.8 62.0828 82.8 62.6828 83.4C63.2828 83.8 64.0828 84 65.0828 84C66.0828 84 66.8828 83.8 67.4828 83.4C68.2828 82.8 68.9828 81.8 69.5828 80.4C70.3828 79 70.8828 77.2 71.0828 75L77.0828 33.6H124.783L121.483 55.8C119.283 71.8 115.483 83.8 110.083 91.8C104.883 99.8 98.1828 105.1 89.9828 107.7C81.7828 110.3 72.1828 111.6 61.1828 111.6ZM164.345 108L215.045 -69.3H285.545L285.245 108H231.545L233.045 82.2H221.945L216.245 108H164.345ZM225.245 59.1H236.045L243.545 -31.8L225.245 59.1ZM307.689 108L328.089 -36H302.589L307.389 -69.3H406.089L401.289 -36H375.789L355.389 108H307.689ZM442.628 111.6C431.628 111.6 422.228 110.3 414.428 107.7C406.628 105.1 401.028 99.8 397.628 91.8C394.228 83.8 393.628 71.9 395.828 56.1L408.128 -31.5C409.528 -41.5 412.928 -49.4 418.328 -55.2C423.728 -61.2 430.728 -65.5 439.328 -68.1C447.928 -70.7 457.628 -72 468.428 -72C479.428 -72 488.628 -70.7 496.028 -68.1C503.428 -65.5 508.828 -61.2 512.228 -55.2C515.628 -49.4 516.628 -41.5 515.228 -31.5L509.528 9.89999H461.828L467.828 -33.9C468.228 -36.3 468.228 -38.1 467.828 -39.3C467.628 -40.7 467.228 -41.6 466.628 -42C466.028 -42.6 465.228 -42.9 464.228 -42.9C463.228 -42.9 462.328 -42.6 461.528 -42C460.728 -41.6 460.028 -40.7 459.428 -39.3C459.028 -38.1 458.628 -36.3 458.228 -33.9L442.928 75C442.728 77.2 442.728 79 442.928 80.4C443.128 81.8 443.528 82.8 444.128 83.4C444.728 83.8 445.528 84 446.528 84C447.528 84 448.328 83.8 448.928 83.4C449.728 82.8 450.428 81.8 451.028 80.4C451.828 79 452.328 77.2 452.528 75L458.528 33.6H506.228L502.928 55.8C500.728 71.8 496.928 83.8 491.528 91.8C486.328 99.8 479.628 105.1 471.428 107.7C463.228 110.3 453.628 111.6 442.628 111.6Z" fill="#2F2F2F"/>
<path d="M-26.6 313L24.1 135.7H94.6L94.3 313H40.6L42.1 287.2H31L25.3 313H-26.6ZM34.3 264.1H45.1L52.6 173.2L34.3 264.1ZM116.744 313L137.144 169H111.644L116.444 135.7H215.144L210.344 169H184.844L164.444 313H116.744ZM251.683 316.6C240.683 316.6 231.283 315.3 223.483 312.7C215.683 310.1 210.083 304.8 206.683 296.8C203.283 288.8 202.683 276.9 204.883 261.1L217.183 173.5C218.583 163.5 221.983 155.6 227.383 149.8C232.783 143.8 239.783 139.5 248.383 136.9C256.983 134.3 266.683 133 277.483 133C288.483 133 297.683 134.3 305.083 136.9C312.483 139.5 317.883 143.8 321.283 149.8C324.683 155.6 325.683 163.5 324.283 173.5L318.583 214.9H270.883L276.883 171.1C277.283 168.7 277.283 166.9 276.883 165.7C276.683 164.3 276.283 163.4 275.683 163C275.083 162.4 274.283 162.1 273.283 162.1C272.283 162.1 271.383 162.4 270.583 163C269.783 163.4 269.083 164.3 268.483 165.7C268.083 166.9 267.683 168.7 267.283 171.1L251.983 280C251.783 282.2 251.783 284 251.983 285.4C252.183 286.8 252.583 287.8 253.183 288.4C253.783 288.8 254.583 289 255.583 289C256.583 289 257.383 288.8 257.983 288.4C258.783 287.8 259.483 286.8 260.083 285.4C260.883 284 261.383 282.2 261.583 280L267.583 238.6H315.283L311.983 260.8C309.783 276.8 305.983 288.8 300.583 296.8C295.383 304.8 288.683 310.1 280.483 312.7C272.283 315.3 262.683 316.6 251.683 316.6Z" fill="#2F2F2F"/>
<path d="M-217.1 518L-166.4 340.7H-95.9L-96.2 518H-149.9L-148.4 492.2H-159.5L-165.2 518H-217.1ZM-156.2 469.1H-145.4L-137.9 378.2L-156.2 469.1ZM-73.7562 518L-53.3562 374H-78.8562L-74.0562 340.7H24.6438L19.8438 374H-5.65624L-26.0562 518H-73.7562ZM61.1828 521.6C50.1828 521.6 40.7828 520.3 32.9828 517.7C25.1828 515.1 19.5828 509.8 16.1828 501.8C12.7828 493.8 12.1828 481.9 14.3828 466.1L26.6828 378.5C28.0828 368.5 31.4828 360.6 36.8828 354.8C42.2828 348.8 49.2828 344.5 57.8828 341.9C66.4828 339.3 76.1828 338 86.9828 338C97.9828 338 107.183 339.3 114.583 341.9C121.983 344.5 127.383 348.8 130.783 354.8C134.183 360.6 135.183 368.5 133.783 378.5L128.083 419.9H80.3828L86.3828 376.1C86.7828 373.7 86.7828 371.9 86.3828 370.7C86.1828 369.3 85.7828 368.4 85.1828 368C84.5828 367.4 83.7828 367.1 82.7828 367.1C81.7828 367.1 80.8828 367.4 80.0828 368C79.2828 368.4 78.5828 369.3 77.9828 370.7C77.5828 371.9 77.1828 373.7 76.7828 376.1L61.4828 485C61.2828 487.2 61.2828 489 61.4828 490.4C61.6828 491.8 62.0828 492.8 62.6828 493.4C63.2828 493.8 64.0828 494 65.0828 494C66.0828 494 66.8828 493.8 67.4828 493.4C68.2828 492.8 68.9828 491.8 69.5828 490.4C70.3828 489 70.8828 487.2 71.0828 485L77.0828 443.6H124.783L121.483 465.8C119.283 481.8 115.483 493.8 110.083 501.8C104.883 509.8 98.1828 515.1 89.9828 517.7C81.7828 520.3 72.1828 521.6 61.1828 521.6ZM164.345 518L215.045 340.7H285.545L285.245 518H231.545L233.045 492.2H221.945L216.245 518H164.345ZM225.245 469.1H236.045L243.545 378.2L225.245 469.1ZM307.689 518L328.089 374H302.589L307.389 340.7H406.089L401.289 374H375.789L355.389 518H307.689ZM442.628 521.6C431.628 521.6 422.228 520.3 414.428 517.7C406.628 515.1 401.028 509.8 397.628 501.8C394.228 493.8 393.628 481.9 395.828 466.1L408.128 378.5C409.528 368.5 412.928 360.6 418.328 354.8C423.728 348.8 430.728 344.5 439.328 341.9C447.928 339.3 457.628 338 468.428 338C479.428 338 488.628 339.3 496.028 341.9C503.428 344.5 508.828 348.8 512.228 354.8C515.628 360.6 516.628 368.5 515.228 378.5L509.528 419.9H461.828L467.828 376.1C468.228 373.7 468.228 371.9 467.828 370.7C467.628 369.3 467.228 368.4 466.628 368C466.028 367.4 465.228 367.1 464.228 367.1C463.228 367.1 462.328 367.4 461.528 368C460.728 368.4 460.028 369.3 459.428 370.7C459.028 371.9 458.628 373.7 458.228 376.1L442.928 485C442.728 487.2 442.728 489 442.928 490.4C443.128 491.8 443.528 492.8 444.128 493.4C444.728 493.8 445.528 494 446.528 494C447.528 494 448.328 493.8 448.928 493.4C449.728 492.8 450.428 491.8 451.028 490.4C451.828 489 452.328 487.2 452.528 485L458.528 443.6H506.228L502.928 465.8C500.728 481.8 496.928 493.8 491.528 501.8C486.328 509.8 479.628 515.1 471.428 517.7C463.228 520.3 453.628 521.6 442.628 521.6Z" fill="#2F2F2F"/>
</g>
</g>
<rect x="0.5" y="0.5" width="305" height="444" stroke="#434343"/>
<defs>
<clipPath id="clip0_3761_9737">
<rect width="306" height="445" fill="white"/>
</clipPath>
<clipPath id="clip1_3761_9737">
<rect width="305" height="605" fill="white" transform="translate(0.5 -80)"/>
</clipPath>
</defs>
</svg>
