<svg xmlns="http://www.w3.org/2000/svg" width="744" height="1133" viewBox="0 0 744 1133" fill="none">
  <path d="M-116.603 1132.14L379.548 411.235L-240.541 1132.14H-116.553H-116.603ZM-328.889 1132.14L379.548 411.235L-470.797 1132.14H-328.889ZM432.057 1132.14L379.548 411.235L327.04 1132.14H432.057ZM256.161 1132.14L379.548 411.235L149.292 1132.14H256.161ZM75.8607 1132.14L379.548 411.235L-37.1149 1132.14H75.8607ZM-574.262 1132.14L379.548 411.235L-745.001 1132.14H-574.262ZM-881.803 1132.14H-872.944L379.598 411.235L-881.854 1029.79V1132.14H-881.803ZM-881.803 605.969L379.598 411.185L-881.854 547.384V605.969H-881.803ZM-881.803 710.371L379.598 411.235L-881.854 646.679V710.321L-881.803 710.371ZM-881.803 965.744L379.598 411.185L-881.854 880.169V965.744H-881.803ZM-881.803 827.642L379.598 411.235L-881.854 755.537V827.642H-881.803ZM1641 453.046L379.598 411.235L1641 509.028V453.046ZM1641 646.729L379.598 411.235L1641 710.371V646.729ZM1641 755.537L379.598 411.235L1641 827.642V755.537ZM-881.854 508.978L379.548 411.185L-881.854 453.046V509.028V508.978ZM1640.95 880.119L379.548 411.185L1640.95 965.744V880.169V880.119ZM1640.95 547.384L379.548 411.185L1640.95 605.969V547.384ZM999.637 1132.14L379.548 411.235L875.699 1132.14H999.687H999.637ZM796.161 1132.14L379.498 411.235L683.186 1132.14H796.161ZM609.754 1132.14L379.498 411.235L502.885 1132.14H609.754ZM1504.05 1132.14L379.498 411.235L1333.31 1132.14H1504.05ZM1640.9 1132.14V1029.79L379.498 411.235L1632.04 1132.14H1640.9ZM1229.84 1132.14L379.498 411.235L1087.94 1132.14H1229.84ZM978.664 -309.967L379.548 411.185L1110.56 -309.967H978.614H978.664ZM1205.92 -309.967L379.598 411.185L1360.54 -309.967H1205.87H1205.92ZM1641 -309.967H1475.22L379.598 411.185L1640.95 -295.746V-309.967H1641ZM592.285 -309.967L379.598 411.185L701.606 -309.967H592.234H592.285ZM414.988 -309.967L379.548 411.185L520.555 -309.967H414.988ZM777.541 -309.967L379.548 411.185L895.271 -309.967H777.541ZM1640.95 -223.591L379.548 411.185L1640.95 -128.502V-223.641V-223.591ZM1640.95 360.411L379.548 411.185L1640.95 415.892V360.411ZM1640.95 265.472L379.548 411.185L1640.95 322.506V265.472ZM1640.95 55.5163L379.548 411.235L1640.95 122.865V55.5163ZM1640.95 -71.1685L379.548 411.185L1640.95 6.89536V-71.1685ZM1640.95 165.477L379.548 411.235L1640.95 226.265V165.477ZM-351.514 -309.967L379.498 411.185L-219.568 -309.967H-351.514ZM-881.854 6.89536L379.548 411.185L-881.854 -71.1685V6.89536ZM-881.854 122.814L379.548 411.185L-881.854 55.5163V122.865V122.814ZM-881.854 -128.502L379.548 411.185L-881.854 -223.591V-128.502ZM-881.854 226.215L379.548 411.185L-881.854 165.477V226.265V226.215ZM238.542 -309.967L379.548 411.185L344.109 -309.967H238.542ZM-881.854 322.506L379.548 411.185L-881.854 265.472V322.506ZM57.4903 -309.967L379.548 411.185L166.862 -309.967H57.4903ZM-881.854 -309.967V-295.746L379.548 411.185L-716.069 -309.967H-881.854ZM-136.175 -309.967L379.548 411.185L-18.444 -309.967H-136.175ZM-601.442 -309.967L379.548 411.185L-446.77 -309.967H-601.442ZM-881.854 415.892L379.548 411.185L-881.854 360.461V415.942V415.892Z" fill="url(#paint0_radial_3749_432)" style="mix-blend-mode:color-burn"/>
  <defs>
    <radialGradient id="paint0_radial_3749_432" cx="0" cy="0" r="1" gradientUnits="userSpaceOnUse" gradientTransform="translate(379.573 411.085) rotate(90) scale(721.052 1261.43)">
      <stop stop-color="#111111" stop-opacity="0"/>
      <stop offset="1" stop-color="#222222"/>
    </radialGradient>
  </defs>
</svg>