<svg width="32" height="32" viewBox="0 0 32 32" fill="none" xmlns="http://www.w3.org/2000/svg">
<path d="M8.42186 1.38143C8.13824 1.3723 7.85437 1.4708 7.49105 1.83412C7.14193 2.18324 6.75099 3.19193 6.53805 4.08362C6.52343 4.1448 6.5103 4.2028 6.49718 4.26087L13.6381 10.8445C13.1893 9.06087 12.5409 7.09543 11.7726 5.42262C11.043 3.83399 10.1945 2.50655 9.42793 1.85862C9.04468 1.53468 8.70543 1.39062 8.42186 1.38143ZM5.7833 5.13293L5.13305 5.78318L15.2241 16.7285L16.7286 15.224L5.7833 5.13293ZM4.26099 6.49705C4.20293 6.51018 4.14493 6.5233 4.08374 6.53793C3.19205 6.75087 2.18337 7.1418 1.83418 7.49093C1.47087 7.85424 1.3723 8.13812 1.38143 8.42174C1.39062 8.70537 1.53468 9.04455 1.85862 9.42787C2.50655 10.1944 3.83412 11.043 5.42268 11.7726C7.09555 12.5409 9.06087 13.1894 10.8445 13.6381L4.26099 6.49705ZM17.5565 15.9872L15.9873 17.5564L20.5664 22.5232L22.5232 20.5663L17.5566 15.9872H17.5565ZM23.3512 21.3294L21.3296 23.3509L21.4589 23.4913C21.4627 23.4949 21.7351 23.7553 22.1205 23.8838C22.5085 24.0131 22.9149 24.0638 23.4894 23.4892C24.0639 22.9147 24.0131 22.5084 23.8837 22.1204C23.7552 21.7345 23.4941 21.4616 23.4911 21.4585L23.3512 21.3294ZM24.6119 23.8956C24.5146 24.0347 24.4051 24.1649 24.2849 24.2847C24.165 24.405 24.0348 24.5145 23.8957 24.6119L30.6197 30.6197L24.6119 23.8956L24.6119 23.8956Z" fill="white"/>
</svg>
