<svg width="744" height="505" viewBox="0 0 744 505" fill="none" xmlns="http://www.w3.org/2000/svg">
<path d="M740.387 238.457L746.04 200.742H674.806L686.597 115.862H746.968L753.106 72.9359H692.736L703.114 -1.5663H774.348L780.001 -40.2527H651.709L612.095 238.501H740.387V238.457ZM406.916 238.457L436.151 29.9658L446.53 238.457H483.803L553.138 29.9658L523.902 238.457H571.995L611.609 -40.2969H543.687L479.563 139.886L466.8 -40.2969H398.392L358.779 238.457H406.872H406.916ZM275.311 8.28195L272.971 159.671H233.843L275.356 8.28195H275.311ZM214.014 238.457L229.559 187.052H270.1L271.028 238.457H332.325L322.963 -40.2969H244.177L155.057 238.457H214.014ZM75.1225 236.823C83.1601 232.274 89.2104 227.328 93.2733 221.985C93.8916 221.366 94.5099 220.571 95.1723 219.644C95.7906 218.717 96.4089 217.745 97.0713 216.818V238.501H138.098L157.442 98.4177H81.9677L77.7281 129.552H100.384L92.3459 185.197C91.0652 194.339 87.8855 201.096 82.6743 205.468C77.5073 209.884 71.4129 212.092 64.5235 212.092C59.7981 212.092 55.6468 211.386 52.0255 209.972C48.4042 208.559 45.9752 205.909 44.6945 201.935C43.458 198.004 43.2813 192.44 44.2087 185.197L67.7915 16.3637C68.7189 8.8119 70.5296 3.07077 73.2235 -0.859695C75.8733 -4.79016 79.1413 -7.39576 82.8951 -8.63231C86.6931 -9.86886 90.9327 -10.5313 95.614 -10.5313C100.648 -10.5313 104.8 -9.91302 108.112 -8.63231C111.424 -7.39576 113.853 -4.79016 115.399 -0.859695C116.989 3.07077 117.121 8.8119 115.885 16.3637L110.232 58.3623H163.05L169.189 19.2343C171.397 2.89412 169.719 -9.86886 164.243 -18.9663C158.722 -28.0638 150.331 -34.4674 139.026 -38.0446C127.72 -41.6659 114.339 -43.4766 98.9261 -43.4766C83.5134 -43.4766 70.1763 -41.6659 57.8991 -38.0446C45.6219 -34.4232 35.6412 -28.0638 27.9569 -18.9663C20.2284 -9.8247 15.2822 2.89412 13.1183 19.2343L-8.56554 172.037C-11.3919 192.484 -10.597 207.808 -6.22493 218.01C-1.80867 228.211 4.85988 235.057 13.8249 238.546C22.7899 241.99 32.4615 243.713 42.8397 243.713C56.3534 243.713 67.1291 241.416 75.1667 236.867" fill="#222222"/>
<path d="M624.594 500.508L646.277 347.44L687.569 500.508H707.178L736.06 297.227H716.452L694.105 456.124L652.813 297.227H633.912L605.03 500.508H624.638H624.594ZM499.039 489.158C494.667 487.789 491.488 484.874 489.412 480.369C487.336 475.909 486.895 469.064 488.043 459.922L504.913 339.535C506.282 330.349 508.579 323.592 511.802 319.22C515.026 314.848 519.045 311.933 523.859 310.432C528.672 308.93 534.06 308.18 540.022 308.18C545.984 308.18 550.798 308.93 555.17 310.432C559.542 311.933 562.722 314.848 564.797 319.22C566.873 323.592 567.226 330.349 565.813 339.535L549.296 459.922C547.927 469.108 545.587 475.909 542.23 480.369C538.918 484.83 534.855 487.745 530.042 489.158C525.228 490.527 519.928 491.233 514.231 491.233C508.534 491.233 503.456 490.571 499.084 489.158M539.846 501.214C547.971 498.918 554.817 494.148 560.293 486.95C565.813 479.707 569.567 468.666 571.643 453.739L587.806 339.535C589.396 326.949 588.424 317.41 584.891 311.006C581.314 304.603 575.838 300.23 568.375 297.934C560.911 295.637 552.167 294.489 542.054 294.489C531.94 294.489 523.196 295.593 515.07 297.757C506.945 299.921 500.143 304.249 494.756 310.653C489.368 317.056 485.747 326.684 483.936 339.535L467.772 454.049C465.697 468.711 466.359 479.663 469.671 486.905C472.984 494.104 478.371 498.874 485.835 501.17C493.298 503.466 502.042 504.615 512.156 504.615C522.269 504.615 531.72 503.466 539.846 501.17M421.004 500.463L449.887 297.183H428.203L399.32 500.463H421.004ZM338.818 500.463L365.315 312.684H400.071L402.456 297.227H312.011L309.626 312.684H343.676L317.178 500.463H338.862H338.818ZM249.742 323.681L256.984 441.286H208.847L249.786 323.681H249.742ZM189.195 500.463L206.374 453.342H256.234L260.341 500.463H283.747L268.246 297.183H240.026L166.451 500.463H189.151H189.195ZM132.446 500.463L158.944 312.684H193.655L196.084 297.227H105.639L103.21 312.684H137.26L110.762 500.463H132.446ZM36.3042 497.549C44.2093 494.016 50.922 488.142 56.4423 480.016C61.9626 471.89 65.7164 460.805 67.7921 446.806C69.3819 434.882 69.2053 425.608 67.2621 418.939C65.319 412.315 61.4327 406.839 55.5591 402.599C49.7296 398.36 41.8687 394.297 32.0204 390.366C25.6168 387.849 19.9199 385.111 14.9737 382.108C10.0275 379.149 6.27364 375.13 3.62389 370.051C0.974136 365.017 0.223377 358.128 1.3716 349.427C3.18227 337.504 6.75943 328.627 12.0148 322.797C17.2701 316.968 24.9544 314.009 35.0676 314.009C44.4743 314.009 51.0545 316.836 54.8525 322.444C58.6504 328.053 59.8428 336.355 58.4738 347.396L56.089 364.575H77.0662L80.1576 342.229C82.2332 327.788 79.5393 316.615 72.0759 308.71C64.6124 300.805 52.9976 296.83 37.1874 296.83C25.0427 296.83 15.062 298.773 7.24522 302.659C-0.571548 306.546 -6.66599 312.463 -11.1706 320.369C-15.631 328.274 -18.6782 338.21 -20.2681 350.134C-21.6371 360.689 -21.1955 369.389 -18.899 376.278C-16.6026 383.168 -12.8929 388.732 -7.72589 392.972C-2.55887 397.211 3.44724 400.833 10.3366 403.792C18.8158 407.457 25.8818 410.858 31.4905 413.949C37.0991 417.04 41.1179 421.192 43.5468 426.314C45.9758 431.482 46.4616 439.21 45.0925 449.544C43.0169 463.985 38.7773 474.01 32.3737 479.619C25.9701 485.227 18.86 488.054 11.0432 488.054C4.86044 488.054 -0.30658 486.817 -4.4137 484.256C-8.56498 481.738 -11.4355 477.322 -13.0254 471.007C-14.6152 464.692 -14.5269 455.815 -12.6721 444.377L-10.9498 431.658H-32.9869L-34.7092 443.008C-36.7848 458.376 -36.4315 470.345 -33.6935 478.956C-30.9554 487.568 -25.7884 493.707 -18.2366 497.372C-10.6848 501.038 -0.924854 502.892 10.999 502.892C19.964 502.892 28.3549 501.126 36.26 497.549" fill="#222222"/>
</svg>
