<svg width="196" height="150" viewBox="0 0 196 150" fill="none" xmlns="http://www.w3.org/2000/svg">
<rect x="0.5" y="0.5" width="195" height="149" fill="#222222"/>
<rect x="0.5" y="0.5" width="195" height="149" stroke="#434343"/>
<path d="M103.601 93.667C107.912 93.667 111.612 92.267 114.702 89.467C117.792 86.667 119.336 83.1781 119.334 79.0003C119.334 74.8225 117.789 71.3337 114.699 68.5337C111.61 65.7337 107.91 64.3337 103.601 64.3337H86.8006L93.734 57.4003L90.0006 53.667L76.6673 67.0003L90.0006 80.3337L93.734 76.6003L86.8006 69.667H103.601C106.401 69.667 108.834 70.5559 110.902 72.3337C112.97 74.1114 114.002 76.3337 114.001 79.0003C114.001 81.667 112.967 83.8892 110.899 85.667C108.832 87.4448 106.399 88.3337 103.601 88.3337H84.6673V93.667H103.601Z" fill="white"/>
</svg>
